<?xml version="1.0" encoding="UTF-8"?>
<svg id="Layer_2" data-name="Layer 2" xmlns="http://www.w3.org/2000/svg" viewBox="0 0 232.28 59.04">
  <defs>
    <style>
      .cls-1 {
        fill: #fff;
      }

      .cls-2 {
        fill: #931111;
      }
    </style>
  </defs>
  <g id="Layer_1-2" data-name="Layer 1">
    <g>
      <path class="cls-1" d="M82.25,7.37s-16.87-1.06-31.69-1.23c0,.88-.88,2.59-2.65,6.35-3.17,6.76-20.64,46.56-20.64,46.56-1.47-.88-1-3.82,1-9.05,2.47-7,16.93-37.21,20.17-43.92h-1.65C15.7,6.07.82,18.01,1.41,26.83c.18,2.53,4.35,6.06,9.99,6.06,10.11,0,17.87-8.76,18.81-10.88,1.35,7.41-8.82,12.35-17.05,12.35-6.94,0-13.17-2.59-13.17-9.35C0,11.07,25.63,3.6,47.56,3.6c16.05,0,32.45,1.76,32.45,1.76,2.12.71,2.23,2,2.23,2Z"/>
      <path class="cls-1" d="M55.09,38.47h1.12c-2.23,3-5,7.17-7.88,7.17-6.11,0,5.41-14.23,3.06-14.23-2.06,0-8.52,9.64-11.17,14.05-1.12.35-2.41-.18-2.12-.76l14.35-31.16c.53,0,2,.82,1.53,1.94-.24.59-11.41,23.75-10.88,22.99,6.29-9.58,11.11-9.88,11.11-6.41,0,2.71-6.11,12.35-5.06,12.35,1.94,0,5.88-5.88,5.94-5.94Z"/>
      <path class="cls-1" d="M69.67,38.47h1.12s-1.76,3.29-4.88,3.41c-.82,0-1.53-.12-2.18-.41-1.71,2.35-3.88,4.06-5.82,4.06-2.18-.06-3.82-1.41-3-6.29.41-2.53,2.41-6.76,5.47-7.58.12,0,.18-.06.29-.06.59-1.12,1.47-1.82,2.59-1.71,4.59.65,3.76,6.29,1.12,10.58.41.23.82.41,1.41.47,2.06.29,3.88-2.47,3.88-2.47ZM59.97,34c-3.06,3.06-5,10.11-2.88,10.41,1.47.24,3.35-1.65,4.88-4.12-.76-.76-1.35-1.76-1.71-2.88-.35-1.12-.41-2.29-.29-3.41ZM62.79,38.88c2-3.82,3.06-8.17.94-8.17-1.59,0-2.59,3.29-1.71,6.41.18.59.41,1.18.76,1.76Z"/>
      <path class="cls-1" d="M89.84,31.12c-2.29,0-9.94,11.29-11.76,13.93l-.12.24c-.06.12-.18.18-.18.24v-.06c0,.06-.06.06-.06.06-1.12,0-1.47-.94-1.12-2.12,1.06-3.76,6.17-12.23,4.82-12.23-2.47,0-11.17,12.82-11.99,14.29-1.12.35-2.88.12-2.23-1.35,5.94-13.64,6.76-13.88,6.88-14.05.06-.06,2.06.23,1.35,1.76-.41.82-4.47,9.11-4.29,8.82,7.58-11.58,12.41-12.41,12.52-8.82,0,1.23-.71,3.23-1.71,5.41,6.29-8.47,10.35-8.41,10.35-5.29s-3.59,8.11-4.94,12.17c-.06.18-.06.29.06.29,1.94,0,5.94-5.88,6-5.94h1.12c-2.23,3-4.94,7.17-7.82,7.17-1.71,0-1.76-.65-1.59-2.06.76-4,6.29-12.46,4.7-12.46Z"/>
      <path class="cls-1" d="M109.36,38.47h1.12c-2.23,3-5,7.53-7.82,7.11-2.53-.35-1.76-4.12-.41-7.7-2.41,3.88-6.06,8.7-8.47,7.41-.82-.47-1.18-1.29-1.23-2.47-.18-4.06,3.94-12.7,9.23-12.7,2.23,0,2.82,1.47,2.94,2.47.41-.65.65-1.06.76-1.12.41-.12,1.94.41,1.7,1.29-.71,1.53-5.29,11.64-3.94,11.64,1.94,0,6.06-5.88,6.11-5.94ZM102.6,31.18c-3.35,0-8.05,10.94-8.05,12.76,0,.18.12.23.18.23,2.23,0,8.05-8.88,8.94-10.64,0,0,.06-2.35-1.06-2.35Z"/>
      <path class="cls-1" d="M116.42,31.29c-2.88,2.88,3.06,15.58-5.88,14.99-2-.12-4.41-3.06-4-3.59.18-.24.47.06.47.06,0,0,1.76,2.47,3.23,2.23,3.64-.53,2.88-6.76,3.23-11.23-1.35,2-3.06,4.7-3.06,4.7h-1.12l4.47-6.7c.29-1.47.94-2.41,2.23-2.53.53-.06.82,1.65.41,2.06Z"/>
      <path class="cls-1" d="M140.7,39.82c0,.24-.47,1.06-2,1.41-1.53.35-4-.12-5.7-2.41-3.29-4.29-2.59-9.82,2.88-17.05,9-11.93,23.63-18.23,26.81-18.28s4.06,1.35,4.29,1.88c.29.47.82,1.65-1.06,6.7-2.76,7.47-12.93,27.63-12.7,27.1,0,0,10.05-16.52,15.81-24.69C177.8,1.96,181.5-.22,183.44.02c1.94.24,3,1.88,2.53,3.17-.53,1.59-5.12,12.58-6.64,15.17-1.47,2.53-10.17,19.99-10.46,20.52,1.06-1.23,21.99-26.04,23.81-26.34s2.7,1.12,2.53,1.71c-1.82,6.11-14.88,28.57-17.46,34.33-1.06,2.35-.29,4.23-.29,4.23-3.59-.53-3-3-2.18-5.23.94-2.59,8.52-17.58,12.41-23.75,3.94-6.17,4.64-8.47,4.23-8.52-.47-.06-2.06,1.88-4.41,4.47-2.94,3.23-22.63,25.87-22.63,25.87-1.53-.23-1.41-1.47-1.41-1.47,0,0,9.35-19.7,14.58-29.28,5.23-9.58,5.82-12.93,5.23-12.99-1.12-.12-6.7,5.12-11.23,11.7-7.88,11.35-26.4,41.27-26.4,41.27-2.06-.53-2.06-2-2.06-2,0,0,20.22-43.51,20.69-45.27.53-1.76.06-2.53-1-2.53-1.71,0-8.11,3.35-13.05,6.64-11.64,7.88-15.99,17.7-16.46,21.75-.41,4.06,1.82,6.58,3.88,6.58s3-.94,3-.94c0,0,.06.47.06.71Z"/>
      <path class="cls-1" d="M204.49,20.36l1.18.41c-2.23,3-13.64,25.22-16.46,24.81-4.76-.71,3-15.29,3.47-15.46.41-.12,1.94.41,1.71,1.29-.71,1.53-6.47,13.29-5.12,13.29,1.18,0,15.17-24.28,15.23-24.34ZM193.97,27.59c.41-1.23,2.41-4.64,3.76-5,.82-.24,1.53.41,1.47.53-.23.53-2.06,3.47-3.18,4.88-1.47,1.59-2.23.12-2.06-.41Z"/>
      <path class="cls-1" d="M204.9,38.47h1.12c-.82,1.12-1.71,2.41-2.65,3.59-4.06,5.06-9.35,5-6.7-3.65,3.06-9.99,10.41-24.75,10.76-24.87.41-.12,1.71.82,1.47,1.7-.53,1.12-6.53,14.35-10.05,23.22-2.82,7.05,0,7.23,3.53,3.17,1.35-1.53,2.47-3.12,2.53-3.17Z"/>
      <path class="cls-1" d="M221.42,38.47h1.12c-.82,1.12-1.71,2.41-2.65,3.59-3.88,4.82-9.52,4.76-7.06-2.65-2.35,3.47-5.41,7-7.53,5.88-.82-.47-1.18-1.29-1.23-2.47-.18-4.06,3.94-12.7,9.23-12.7,1.65,0,2.35.82,2.7,1.65,4.06-8.88,9.17-18.11,9.47-18.22.41-.12,1.82,1.35,1.29,2.29-.53,1.12-7.06,12.88-11.41,22.64-3.12,6.94,0,7.23,3.53,3.17,1.35-1.53,2.47-3.12,2.53-3.17ZM214.13,31.18c-3.35,0-8.05,10.94-8.05,12.76,0,.18.12.23.18.23,2.23,0,8.05-8.88,8.94-10.64,0,0,.06-2.35-1.06-2.35Z"/>
      <path class="cls-2" d="M232.28,42.13c0,1.69-1.16,2.39-2.77,2.39s-2.23-1.31-2.23-2.31.92-2.31,2.77-2.31c.31,0,2.23.38,2.23,2.23Z"/>
    </g>
  </g>
</svg>