<?xml version="1.0" encoding="UTF-8"?>
<svg id="Layer_2" data-name="Layer 2" xmlns="http://www.w3.org/2000/svg" viewBox="0 0 147.59 46.21">
  <defs>
    <style>
      .cls-1 {
        fill: #fff;
      }

      .cls-2 {
        fill: #479bd0;
      }
    </style>
  </defs>
  <g id="Layer_1-2" data-name="Layer 1">
    <g>
      <g>
        <path class="cls-2" d="M60.78,11.26c.73,0,1.41.12,2.05.35.63.24,1.18.58,1.64,1.04.46.46.82,1.02,1.08,1.68.26.66.39,1.42.39,2.27v4.32c0,2.72-.89,4.37-2.66,4.96l2.55,9.28.14.57h-3.47l-2.83-9.63h-1.03v9.63h-3.47V11.26h5.61ZM62.57,16.64c0-.59-.18-1.09-.53-1.5-.35-.41-.76-.62-1.2-.62h-2.2v8.36h2.69c.45,0,.77-.18.96-.53s.28-.81.28-1.38v-4.32Z"/>
        <path class="cls-2" d="M79.67,30.53c0,.87-.15,1.64-.46,2.28-.31.65-.72,1.19-1.24,1.63-.52.44-1.13.76-1.82.97-.7.21-1.42.32-2.18.32s-1.47-.13-2.14-.39-1.27-.62-1.79-1.08c-.52-.46-.93-1.01-1.22-1.65-.3-.64-.44-1.33-.44-2.09v-13.88c0-.76.15-1.46.44-2.11.29-.65.7-1.21,1.22-1.68.52-.47,1.12-.84,1.79-1.1s1.39-.39,2.14-.39,1.48.13,2.18.39,1.3.62,1.82,1.1c.52.47.93,1.03,1.24,1.68.31.65.46,1.35.46,2.11v13.88ZM76.2,16.68c0-.61-.21-1.11-.64-1.48-.43-.38-.96-.57-1.59-.57-.59,0-1.09.19-1.49.57-.4.38-.6.87-.6,1.48v13.85c0,.57.2,1.03.6,1.4.4.37.9.55,1.49.55.64,0,1.17-.18,1.59-.55.42-.37.64-.83.64-1.4v-13.85Z"/>
        <path class="cls-2" d="M91.25,11.37h3.36v24.36h-3.36l-4.82-14.55v6.91c0,1.28,0,2.55.02,3.83.01,1.27.02,2.55.02,3.82h-3.26V11.37h3.51l4.57,14.8-.04-14.8Z"/>
        <path class="cls-1" d="M114.13,11.26l-5.81,12.18,5.77,12.29h-3.75l-3.68-8.11v8.11h-3.61V11.26h3.61v7.86l1.67-3.65c.33-.68.66-1.38.99-2.09.33-.71.66-1.42.99-2.12h3.83Z"/>
        <path class="cls-1" d="M119.09,35.73h-3.54V11.37h3.54v24.36Z"/>
        <path class="cls-1" d="M128.61,11.37c.73,0,1.41.12,2.04.35.63.24,1.17.58,1.63,1.04.46.46.82,1.02,1.08,1.68.26.66.39,1.41.39,2.23v4.32c0,1.27-.22,2.33-.67,3.17-.45.84-1.12,1.42-2.02,1.75l2.58,9.24.14.57h-3.54l-2.79-9.6h-1.07v9.6h-3.36V11.37h5.59ZM130.31,16.68c0-.59-.18-1.09-.54-1.5s-.74-.62-1.14-.62h-2.25v8.32h2.75c.41,0,.7-.17.89-.5.19-.33.29-.79.29-1.38v-4.32Z"/>
        <path class="cls-1" d="M147.59,11.37l-5.77,12.11,5.74,12.25h-3.79l-3.65-8.07v8.07h-3.58V11.37h3.58v7.79c.26-.54.52-1.08.78-1.63.26-.54.52-1.08.78-1.63.35-.75.7-1.51,1.04-2.27.34-.75.68-1.51,1.01-2.27h3.86Z"/>
      </g>
      <g>
        <path class="cls-2" d="M6.84,21.63l9.93-.11c1.37-.02,2.34-.93,2.51-2.16.14-1.06-.71-2.69-2.16-2.7l-13.5-.05c-2.2,6.46-1.08,13.44,3.04,18.83,4.64,6.07,12.08,9.13,19.65,8.08.78.73,1.39,1.38,2,2.16-7.43,1.61-14.88-.41-20.49-5.31C.29,33.8-2.05,23.21,1.88,14.09h14.89c2.8,0,4.87,2.22,5.05,4.75s-1.73,5.12-4.47,5.37l-3.81.18,18.03,17.67c10.32-4.38,15.55-16.13,11.07-26.78.87-.12,1.77-.13,2.7-.07,4.55,12.27-2.06,25.71-14.55,29.83L6.84,21.63Z"/>
        <path class="cls-1" d="M23.4,32.4l-.06-18.54c.82-.12,1.74-.13,2.64-.07l.09,6.02,14.19-9.01c-4.37-5.62-10.86-8.61-17.74-8.29-6.62.31-12.82,3.69-16.59,9.47-.96.11-1.85.11-2.95,0C7.07,4.55,14.92.09,23.25,0c8.43-.09,16.33,4.28,20.61,11.7l-16.39,10.45,10.81,12.72c-1.08.16-2.12.19-3.38.17l-8.81-10.31v9.91s-2.69-2.24-2.69-2.24Z"/>
      </g>
    </g>
  </g>
</svg>